<?xml version="1.0" encoding="utf-8"?>
<!-- Generator: Adobe Illustrator 24.0.2, SVG Export Plug-In . SVG Version: 6.00 Build 0)  -->
<svg version="1.1" id="图层_1" xmlns="http://www.w3.org/2000/svg" xmlns:xlink="http://www.w3.org/1999/xlink" x="0px" y="0px"
	 viewBox="0 0 1918.6 618.7" style="enable-background:new 0 0 1918.6 618.7;" xml:space="preserve">
<style type="text/css">
	.st0{fill:url(#SVGID_1_);}
	.st1{fill:#FFFFFF;}
</style>
<linearGradient id="SVGID_1_" gradientUnits="userSpaceOnUse" x1="151.1667" y1="357.2794" x2="470.9289" y2="-196.569" gradientTransform="matrix(1 0 0 -1 -1.37 389.66)">
	<stop  offset="0" style="stop-color:#A5F4D3"/>
	<stop  offset="0.12" style="stop-color:#7CE395"/>
	<stop  offset="0.36" style="stop-color:#59C896"/>
	<stop  offset="0.54" style="stop-color:#55C596"/>
	<stop  offset="0.7" style="stop-color:#3EAA9B"/>
	<stop  offset="0.85" style="stop-color:#349D9E"/>
	<stop  offset="1" style="stop-color:#215273"/>
</linearGradient>
<path class="st0" d="M619.3,233.7c0-41.7-24.6-78-60.6-95.9c-18.4-8.3-38.3-12.6-58.4-12.7c-33.1,0-77.3,40.8-77.3,40.8L294.5,296.2
	c0,0-105,102.3-135.4,132s-69.3,21-69.3,21c-8.2-2.5-15.9-6.5-22.8-11.7c-14.2-10.9-21.2-27-23.3-44.9c-0.3-2.4-0.4-4.9-0.5-7.3
	c-0.1-21.2,8-40.2,24.7-52.7l30.7-22.8l-9.5-7.1c-9.2-6.9-18.4-13.7-27.6-20.6c-8.9-6.6-12.2-16.9-15.4-27.4
	c-1.9-6.5-2.8-13.3-2.7-20.1c0-0.9,0-1.7,0-2.6c0.6-18,6.3-34.8,19.7-46.7c13.6-11.9,31.1-18.4,49.2-18.3c15.3,0,29.4,6.4,41.1,16.5
	l0.2,0.1c0.8,0.7,1.5,1.4,2.3,2.1l4.5,4.5c0.5,0.5,1,1.1,1.5,1.6l9.9,9.7l82.8,81.7l29.7-28.8l-83.2-83l-9.7-9.8
	c-0.6-0.5-1.1-1-1.6-1.5l-4.5-4.5c-0.7-0.8-1.4-1.5-2.1-2.3c0,0-0.2-0.2-0.1-0.2c-10-11.6-16.4-25.8-16.4-41.1
	c-0.1-18.1,6.4-35.5,18.2-49.2c11.9-13.5,28.7-19.1,46.7-19.7c0.9,0,1.7,0,2.6,0c6.8-0.1,13.5,0.8,20,2.7
	c10.5,3.1,20.8,6.5,27.4,15.4l20.6,27.6l7.1,9.5l22.8-30.7c12.5-16.8,31.5-24.8,52.7-24.7c2.4,0,4.9,0.2,7.3,0.5
	c17.8,2.1,34,9.1,44.8,23.3c5.2,6.9,9.2,14.6,11.7,22.8l31.7-29C462.2,24.7,426,0,384.2,0c-28.3,0.1-55.4,11.5-75.2,31.7
	C289.3,11.5,262.2,0.1,233.9,0C174.3,0,126,50.3,126,112.3c0,5.2,0.4,10.5,1.2,15.6c-5-0.8-10-1.1-15-1.1
	c-62,0-112.3,48.3-112.3,107.9C0,263,11.5,290.1,31.7,309.9C11.5,329.6,0.1,356.7,0,385c0,41.8,24.7,78,60.8,95.9
	c18.4,8.3,38.3,12.6,58.4,12.7c33.1,0,77.3-40.8,77.3-40.8l126.6-128c0,0,106.9-104.7,137.3-134.4c29.3-28.7,66.6-21.5,69.2-21
	c8.2,2.5,15.9,6.5,22.8,11.7c14.2,10.8,21.2,27,23.3,44.8c0.3,2.4,0.4,4.9,0.5,7.3c0.1,21.2-8,40.2-24.7,52.7l-30.7,22.8l9.5,7.1
	l27.6,20.6c8.9,6.6,12.2,16.9,15.4,27.4c1.9,6.5,2.8,13.2,2.7,20c0,0.9,0,1.7,0,2.6c-0.6,18-6.3,34.8-19.7,46.7
	c-13.6,11.9-31.1,18.4-49.2,18.3c-15.3,0-29.4-6.4-41.1-16.4l-0.2-0.2c-0.8-0.7-1.5-1.4-2.3-2.1l-4.5-4.5c-0.5-0.5-1-1-1.5-1.6
	l-9.8-9.7L365,335.4l-29.7,28.8l83.2,83l9.7,9.8c0.5,0.5,1.1,1,1.6,1.5l4.5,4.5c0.7,0.8,1.4,1.5,2.1,2.3c0,0,0.2,0.2,0.1,0.2
	c10,11.7,16.5,25.8,16.5,41.1c0,18.1-6.5,35.5-18.3,49.2c-11.9,13.5-28.7,19.1-46.7,19.7c-0.9,0-1.7,0-2.6,0
	c-6.8,0.1-13.5-0.8-20.1-2.7c-10.5-3.1-20.8-6.5-27.4-15.4c-6.9-9.2-13.7-18.5-20.6-27.7l-7.1-9.5l-22.8,30.7
	c-12.5,16.8-31.5,24.8-52.7,24.7c-2.4,0-4.9-0.2-7.3-0.5c-17.8-2.2-34-9.1-44.8-23.3c-5.2-6.8-9.2-14.6-11.7-22.8l-31.7,29
	c18,36.1,54.1,60.8,95.9,60.8c28.3-0.1,55.4-11.5,75.2-31.7c19.8,20.2,46.9,31.6,75.2,31.7c59.6,0,107.9-50.3,107.9-112.3
	c0-5.2-0.4-10.5-1.2-15.6c5,0.8,10,1.1,15,1.1c62,0,112.3-48.3,112.3-107.9c-0.1-28.3-11.5-55.4-31.8-75.1
	C607.9,289,619.3,261.9,619.3,233.7z"/>
<g>
	<path class="st1" d="M1024,267.2c0,3.4-1.6,5.1-4.8,5.1h-58.8c-3.2,0-4.8-1.9-4.8-5.8c0-11.2,0.4-27.9,1.2-50.3
		c0.8-22.4,1.2-39.1,1.2-50.3c0-3.2-0.5-4.9-1.5-5.1c-1.2,0.7-8.6,17.8-22.2,51.3c-8,19.7-15.9,39.3-23.9,58.9
		c-1.1,2.5-2.5,4-4.2,4.5c-0.6,0.1-2.8,0.2-6.6,0.2c-5.8,0-9.2-1.1-10.3-3.3c-6-12.2-13.8-29.9-23.6-53.1
		c-10.4-24.6-18.2-42.3-23.4-53.3c-0.2-0.6-0.7-1.2-1.5-1.8c-0.8,1-1.2,2.6-1.2,4.8c0,10.8,0.3,27.1,0.8,48.8
		c0.6,21.7,0.8,38,0.8,48.8c0,3.9-1.6,5.8-4.6,5.8h-55.4c-2.2,0-3.6-0.4-4.1-1.1c-0.5-0.7-0.7-2-0.7-3.7c0-12.1,0.6-30.2,1.7-54.4
		c1.2-24.2,1.7-42.3,1.7-54.4c0-12.8-0.6-36.9-1.7-72.2c-0.1-9.2-0.6-22.9-1.5-41l-0.2-2.8c-0.1-2.2,2.2-3.3,7-3.3
		c6.1,0,15.2-0.2,27.4-0.6c12.2-0.4,21.3-0.6,27.4-0.6c1.2,0,2.9,2.3,5.1,7L892,151.6c3.4,7.2,6.3,10.8,8.6,10.8
		c1.2,0,3.8-4.2,7.8-12.5c11.2-23.2,27.7-58.3,49.6-105.1c1.9-4.3,3.9-6.5,6.1-6.5c3.2,0,8.1,0.2,14.5,0.5s11.4,0.5,14.7,0.5
		c2.8,0,7-0.3,12.7-0.8c5.7-0.6,9.9-0.8,12.7-0.8c3.3,0,5,1.3,5,4c0,13.1-0.5,32.6-1.4,58.5c-0.9,26-1.4,45.5-1.4,58.5
		c0,12.1,0.5,30.2,1.5,54.3C1023.5,237.2,1024,255.2,1024,267.2z"/>
	<path class="st1" d="M1220.5,189.3c0,8.5,0.5,21.2,1.5,38c1,16.8,1.5,29.4,1.5,37.9c0,4.4-1.9,6.8-5.8,7.1
		c-13.7,1-29.4,1.5-47.1,1.5c-2.1,0-3.5-3.2-4.2-9.5c-0.7-6.4-1.6-9.6-2.6-9.7c-0.9,0.4-2,1.4-3.5,2.8
		c-12.4,12.5-25.7,18.8-39.8,18.8c-21.6,0-39.5-8.5-53.6-25.6c-13.4-15.9-20.1-35-20.1-57.1c0-25.6,6.9-46.2,20.8-61.8
		c14.4-16.2,34.1-24.2,59.1-24.2c17.4,0,31.1,6.1,41.2,18.3c0.4,0.6,0.8,0.8,1.2,0.8c1,0,2.1-2.7,3.4-8.1c1.3-5.4,2.8-8.1,4.6-8.1
		c4.1,0,11.9,1.2,23.4,3.5c11,2.2,18.8,4.1,23.6,5.6c1.7,0.7,2.5,1.6,2.5,2.7c0,0.4-0.2,1.6-0.5,3.5
		C1222.3,145.8,1220.5,167,1220.5,189.3z M1167.1,190.3c0-9.4-3-17.2-8.9-23.3c-5.9-6.1-13.6-9.2-23.2-9.2c-9.5,0-17.2,3-23.1,9.1
		c-5.9,6.1-8.8,13.9-8.8,23.4c0,9,3.1,16.7,9.3,23.1c6.2,6.4,13.7,9.6,22.6,9.6c9.4,0,17.1-3.1,23.1-9.2S1167.1,199.8,1167.1,190.3z
		"/>
	<path class="st1" d="M1400,267.8c0,2.4-1.8,3.9-5.5,4.5c-6.5,0.9-13.4,1.3-20.8,1.3c-7.7,0-14.2-0.4-19.4-1.3
		c-1.3-0.2-3.4-1.3-6.1-3.3c-5.4-7.7-13.7-19.3-24.7-34.7c-2.8,3.3-11.8,14.7-27.2,34.2c-1.4,2-3.5,3.3-6.1,3.8
		c-3.9,0.9-10,1.3-18.3,1.3c-17.5,0-26.2-1.9-26.2-5.8c0-3.2,0.1-8.1,0.2-14.7c0.1-6.6,0.2-11.5,0.2-14.9c0-1.9,1-3.9,3-6.1
		c8.6-9,21.4-22.5,38.2-40.7c-7.7-7.4-15.4-14.8-23.1-22.2c-12.3-12.1-18.4-19.2-18.4-21.4v-29.2c0-2.9,1.9-4.3,5.8-4.3
		c4.4,0,11,0.2,19.8,0.5s15.4,0.5,19.8,0.5c2.2,0,4.3,1.2,6.1,3.7c6.1,8.1,14.6,18.3,25.6,30.7c10-12.1,17.9-22.3,23.7-30.7
		c1.7-2.2,3.7-3.3,6.1-3.3c4.6,0,11.6-0.2,20.8-0.7c9.2-0.4,16.1-0.7,20.8-0.7c3.9,0,5.8,1.4,5.8,4.3v29.2c0,2.1-0.9,4-2.8,5.8
		c-8.4,8.5-20.9,21.5-37.4,38.8c8.4,8.7,20.9,22.1,37.4,40c1.9,2.1,2.8,4.2,2.8,6.1V267.8z"/>
</g>
<g>
	<path class="st1" d="M975.3,442.2c0,26.8-7,48.5-21.1,65.1c-15.1,17.6-35.8,26.4-62.3,26.4c-4.4,0-11.1-0.2-20-0.7
		c-8.9-0.5-15.6-0.7-20-0.7c-4.8,0-7.1,2-7.1,6.1c0,5.1,0.5,12.7,1.5,22.7c1,10.1,1.5,17.6,1.5,22.6c0,2.5-1.2,3.8-3.5,3.8
		c-6.8,0-16.9-0.2-30.4-0.6c-13.5-0.4-23.6-0.6-30.4-0.6c-3.2,0-4.8-1.6-4.8-4.8c0-12.3,0.2-30.7,0.6-55.4
		c0.4-24.6,0.6-43.1,0.6-55.4c0-34.8-1.5-71.3-4.5-109.6l-0.2-2.3c-0.2-2.1,1.4-3.4,5-3.8c8.6-1.1,27.7-1.7,57.1-1.7
		c17.4,0,34,0.2,50,0.7c26.2,0.8,47.4,9,63.4,24.7C967.1,395,975.3,416.1,975.3,442.2z M909.1,444.9c0-25.8-12.6-38.7-37.7-38.7
		c-17.7,0-27,1-27.9,3c-0.8,1.4-1.2,14.2-1.2,38.3c0,3.4,0.1,8.5,0.4,15.2c0.3,6.7,0.4,11.8,0.4,15.2c0,2.2,10,3.3,29.9,3.3
		C897.1,481.2,909.1,469.1,909.1,444.9z"/>
	<path class="st1" d="M1107,482.9c0,4.3-2.4,6.5-7.1,6.5c-2.1,0-5.2-0.1-9.2-0.4c-4-0.3-7.1-0.4-9-0.4c-9.2,0-15.4,1.4-18.8,4.3
		c-3.3,2.9-5,8.7-5,17.4c0,4.8,0.1,12,0.3,21.7c0.2,9.7,0.2,16.9,0.2,21.7c0,3.2,0.2,8,0.7,14.4c0.4,6.4,0.7,11.1,0.7,14.2
		c0,2.7-1.8,4.2-5.5,4.5c-5.3,0.4-13.4,0.7-24.4,0.7c-10.5,0-18.9-0.3-25.2-1c-3.7-0.4-5.5-2.3-5.5-5.5c0-8.9,0.1-22.1,0.2-39.8
		c0.1-17.7,0.2-30.9,0.2-39.8c0-26-2.4-47.4-7.1-64.2c-0.2-1-0.3-1.8-0.3-2.5c0-1.7,0.8-2.8,2.5-3.3c6.1-0.7,15-1.9,26.7-3.7
		c17.5-3.4,26.5-5.1,27.1-5.1c2,0,3.3,3.5,3.8,10.5c0.6,7,1.5,10.5,3,10.5c-1.6,0,3-2.9,13.6-8.7s20.9-8.7,30.7-8.7
		c6.2,0,9.3,1.3,9.3,4c0,3.2-0.3,7.7-1,13.6c-0.7,6.3-1.1,10.8-1.2,13.6c0,3.2,0.1,7.5,0.2,12.8C1106.9,476.5,1107,480.8,1107,482.9
		z"/>
	<path class="st1" d="M1286.1,504.6c0,25.2-7.7,45.7-23.2,61.4c-15.4,15.7-35.7,23.6-60.8,23.6c-24.3,0-44.4-7.7-60.1-23.2
		c-15.7-15.5-23.6-35.4-23.6-59.8c0-25.7,7.5-46.5,22.6-62.5c15.1-16,35.4-24,61.1-24c25,0,45.3,7.8,60.8,23.5
		C1278.3,459.3,1286.1,479.6,1286.1,504.6z M1231.6,504.6c0-8.7-2.7-16.5-8.1-23.2c-5.4-6.7-12.5-10-21.1-10
		c-8.7,0-15.9,3.4-21.6,10.3c-5.3,6.4-8,14.1-8,22.9c0,9,2.7,16.7,8,23.1c5.6,6.9,12.8,10.3,21.6,10.3c8.6,0,15.8-3.4,21.4-10.3
		C1229,521.3,1231.6,513.6,1231.6,504.6z"/>
	<path class="st1" d="M1417.2,537.7c0,3.3-0.4,8.4-1.2,15.1c-0.8,6.8-1.2,11.7-1.2,14.9s-0.3,5.2-1,6.1c-0.7,0.9-2.5,2.2-5.5,3.8
		c-14.3,7.9-30.1,11.8-47.5,11.8c-32,0-48-12.2-48-36.7c0-7.3,0.3-18.3,0.8-33c0.6-14.7,0.8-25.6,0.8-33c0-4.9-2.8-7.3-8.5-7.3
		c-0.4,0-1.2,0-2.2,0c-1,0.1-1.7,0.2-2.2,0.2c-4.2,0-6.3-1.5-6.3-4.5c0-1.8,0.1-4.5,0.4-8.1c0.3-3.7,0.4-6.4,0.4-8.1
		c0-2.3-0.1-5.9-0.4-10.6c-0.3-4.8-0.4-8.3-0.4-10.6c0-2.2,3.5-3.4,10.6-3.7c4-0.1,6.1-1.2,6.5-3.3c0.7-4.2,0.9-10.8,0.7-19.9
		c-0.4-14.3-0.7-21.1-0.7-20.4c0-12.8,1.2-19.3,3.7-19.3c3,0,7.2,0.7,12.8,2c6.3,1.4,10.7,2.3,13.1,2.5c5.6,0.8,14.2,1.8,25.6,3.2
		c2.8,0.2,4.2,1.2,4.2,2.8c0,4.4-0.4,11.1-1.1,20.1c-0.7,9-1.1,15.7-1.1,20.3c0,5.4,1.6,8.1,4.8,8.1c3.9,0,9.7-0.2,17.6-0.5
		c7.9-0.3,13.8-0.5,17.8-0.5c2.4,0,3.7,0.8,3.7,2.5c0,2.5-0.3,6.4-0.8,11.5c-0.6,5.1-0.8,8.9-0.8,11.5c0,2.7,0.1,6.5,0.2,11.6
		c0.1,5.1,0.2,9,0.2,11.6c0,2.3-1.6,3.5-4.8,3.5c-2.2,0-5.9-0.1-11.1-0.2c-5.2-0.2-8.9-0.2-11.1-0.2h-12.5c-1.7,0-2.5,2.4-2.5,7.3
		c0,2.7,0,6.6,0,11.8c0.1,5.3,0.2,9.2,0.2,11.8c0,9.3,1.1,15.7,3.2,19.3c3,4.8,8.9,7.1,17.6,7.1c2.8,0,6.7-0.6,11.9-1.9
		c5.1-1.3,8.8-1.9,10.9-1.9C1416.1,534,1417.2,535.2,1417.2,537.7z"/>
	<path class="st1" d="M1586.8,496.2c0,11.2-3.6,17.5-10.8,19.1c-1.2,0.2-12.7,1.4-34.4,3.7c-13.1,1.4-32.5,3.2-58.4,5.1
		c1.5,7.2,6.3,12.7,14.1,16.4c6.4,3.1,13.7,4.6,21.9,4.6c9.8,0,19.8-2.7,29.7-8c4.2-2.7,8.4-5.3,12.6-8c2.3,1.1,6.2,6.8,11.7,16.9
		c5.5,10.2,8.2,16.7,8.2,19.4c0,0.8-0.8,2-2.5,3.8c-13.5,14.5-34.5,21.7-62.9,21.7c-26.3,0-47.6-7.7-63.8-23.1
		c-16.6-15.6-24.9-36.5-24.9-62.6c0-25.5,7.4-46.3,22.2-62.6c15.3-16.8,35.5-25.2,60.8-25.2c21.3,0,39.3,7.7,54.1,23.2
		C1579.3,456.4,1586.8,474.8,1586.8,496.2z M1528.6,486c0-6.9-2.4-12.9-7.3-18.1c-4.9-5.2-10.7-7.8-17.4-7.8c-7,0-12.7,2.9-17.3,8.8
		c-4.2,5.4-6.3,11.8-6.3,19.1c0,3,1.5,4.5,4.6,4.5c8.2,0,20.9-1.3,38.2-3.8C1526.8,488.1,1528.6,487.3,1528.6,486z"/>
	<path class="st1" d="M1714.9,477.1c-0.1,0-3.5-0.9-10-2.7c-6.6-1.8-11.9-2.7-16-2.7c-9.9,0-17.7,3-23.6,8.9
		c-5.9,5.9-8.8,13.8-8.8,23.7c0,10.2,3.2,18.2,9.6,24c6.4,5.8,14.8,8.7,25.1,8.7c4.9,0,10.3-1.2,16.4-3.7c6.1-2.5,9-3.7,8.6-3.7
		c1.9,0,4.3,7,7.3,21.1c2.5,12.8,3.8,21.4,3.8,25.6c0,4.2-6.9,7.8-20.6,10.8c-10.6,2.3-19.2,3.5-25.7,3.5
		c-24.3,0-44.4-8.2-60.3-24.6c-15.8-16.4-23.7-36.8-23.7-61.3c0-24.2,7.9-44.6,23.8-61.2c15.9-16.5,35.9-24.8,60.2-24.8
		c16.5,0,31,3.5,43.5,10.6c2.9,1.6,4.3,3,4.3,4.5c0,1.4-1.7,8-5,19.6c-3.1,11.2-5.1,17.9-6.1,20.3
		C1716.9,475.9,1715.9,477.1,1714.9,477.1z"/>
	<path class="st1" d="M1912.1,466l-0.3,114.6c0,3.9-1.6,6-4.6,6.5c-3.5,0.4-11.6,0.7-24.2,0.7c-12.2,0-20.6-0.4-25.4-1.3
		c-3.7-0.7-5.5-3-5.5-7.1c0-9.5,0.2-23.8,0.5-43c0.3-19.1,0.5-33.5,0.5-43c0-12.9-6.6-19.4-19.8-19.4c-4.4,0-9.6,1.8-15.6,5.3
		c-6.5,3.9-9.8,7.9-9.8,12.1v41c0,5.3,0.1,13.3,0.3,24c0.2,10.7,0.3,18.7,0.3,24c0,4.1-1.7,6.4-5.1,6.8c-3.4,0.4-13.1,0.7-28.9,0.7
		c-9.1,0-15.6-0.4-19.6-1.3s-6-2.8-6-5.8c0-8.7,0.1-21.9,0.2-39.4c0.1-17.5,0.2-30.7,0.2-39.4c0-36.2-0.4-66.1-1.2-89.8
		c-0.3-8.3-0.6-16.6-0.8-24.9c-0.6-9.6-1.6-17.9-3-24.7c-0.3-1.4-0.5-2.5-0.5-3.2c0-1.7,0.8-2.8,2.5-3.3c3.4-1,8.5-1.6,15.1-1.8
		c8.9-0.3,14-0.6,15.4-0.8l30-3.5c1.8,0,2.7,1.2,2.7,3.5c0,3.5-0.2,8.4-0.7,14.4c-0.4,7.1-0.7,11.9-0.7,14.4c-0.7,25-1,44.8-1,59.3
		c0,2.2,0.6,3.3,1.7,3.3c0.2,0,3-1.9,8.5-5.8c6.4-4.5,12.6-8.1,18.4-10.8c8.7-3.9,17.2-5.8,25.4-5.8c14.2,0,26,3.7,35.5,11.1
		C1907,441.2,1912.1,452.1,1912.1,466z"/>
</g>
</svg>
